<svg width="83" height="24" viewBox="0 0 83 24" fill="none" xmlns="http://www.w3.org/2000/svg">
<path d="M47.4781 21.5918H45.2069L45.2808 6.9553L39.6145 18.6159C39.3515 19.157 38.8031 19.5008 38.202 19.5008H37.9649C37.3658 19.5008 36.8185 19.1589 36.5543 18.6209L30.8331 6.95492L30.9352 21.5914H28.6641V3.95623C28.6641 3.08675 29.3672 2.38281 30.2352 2.38281C30.8393 2.38281 31.3889 2.72859 31.6508 3.27395L38.0709 16.5257L44.4632 3.27588C44.725 2.72975 45.2754 2.38281 45.8796 2.38281H45.9055C46.7734 2.38281 47.477 3.08714 47.477 3.95623V21.5914H47.4777L47.4781 21.5918Z" fill="#091010"/>
<path d="M60.2092 8.56933H62.6312V21.5887H60.2092V19.2746C59.3463 20.836 57.5369 21.9232 55.4491 21.9232C52.0528 21.9232 49.0742 19.0518 49.0742 15.0649C49.0742 11.078 51.8857 8.23438 55.5605 8.23438C57.5091 8.23438 59.3463 9.07059 60.2096 10.6042V8.56894L60.2092 8.56933ZM60.2092 15.0653C60.2092 12.3888 57.9543 10.521 55.7829 10.521C53.4166 10.521 51.5237 12.6119 51.5237 15.0653C51.5237 17.5186 53.4166 19.6374 55.8107 19.6374C58.2049 19.6374 60.2092 17.7135 60.2092 15.0653Z" fill="#091010"/>
<path d="M67.8908 21.593H65.4688V1.49219H67.8908V21.593Z" fill="#091010"/>
<path d="M78.5742 3.77337C78.5742 2.85322 79.3536 2.15625 80.2722 2.15625C81.1908 2.15625 81.9976 2.85322 81.9976 3.77337C81.9976 4.69352 81.2186 5.39049 80.2722 5.39049C79.3257 5.39049 78.5742 4.69352 78.5742 3.77337ZM79.0755 21.588V8.56826H81.4975V21.588H79.0755Z" fill="#091010"/>
<path d="M77.6777 21.59H74.4206L69.2471 16.0947C68.2202 15.0044 68.2438 13.2956 69.3008 12.2339L72.9462 8.57031H76.3147L70.4376 14.2018L77.6784 21.5897H77.6773L77.6777 21.59Z" fill="#091010"/>
<path d="M23.1483 15.5547C22.7093 16.9084 22.1644 17.858 21.6778 18.5727C19.3656 18.3283 18.3264 19.366 18.5712 21.679C17.8649 22.1597 16.908 22.7101 15.5539 23.1491C15.173 17.4932 17.494 15.1726 23.1483 15.5547ZM8.43219 23.1487C7.07808 22.7097 6.12119 22.1593 5.41494 21.6786C5.65977 19.3656 4.62049 18.3275 2.30834 18.5724C1.82177 17.8576 1.2768 16.9081 0.837804 15.5543C6.49211 15.1722 8.81317 17.4929 8.43219 23.1487ZM15.5539 0.837804C16.908 1.2768 17.8649 1.82718 18.5712 2.30795C18.3264 4.62088 19.3656 5.65899 21.6778 5.41416C22.1644 6.12893 22.7093 7.07847 23.1483 8.43219C17.494 8.81433 15.173 6.49366 15.5539 0.837804ZM0.838191 8.43219C1.27718 7.07847 1.82215 6.12893 2.30872 5.41416C4.62088 5.65861 5.66015 4.62088 5.41532 2.30795C6.12158 1.82718 7.07847 1.2768 8.43258 0.837804C8.81356 6.49366 6.4925 8.81433 0.838191 8.43219ZM23.609 10.5239C15.6568 10.3788 13.6077 8.32854 13.4626 0.377538C12.5533 0.259571 11.432 0.259571 10.5239 0.377538C10.3785 8.32738 8.32892 10.3788 0.377538 10.5239C0.259571 11.4328 0.259571 12.5541 0.377538 13.4626C8.29063 13.6069 10.3808 15.6564 10.5243 23.6094C11.4324 23.7273 12.5541 23.7266 13.463 23.6094C13.6084 15.656 15.6572 13.6061 23.6098 13.4626C23.7277 12.5541 23.7277 11.4328 23.6098 10.5239H23.609ZM11.9936 16.698C11.9936 14.213 9.77393 11.9933 7.28888 11.9933C9.77393 11.9933 11.9933 9.7689 11.9936 7.28849C11.9871 9.7689 14.2134 11.9936 16.6984 11.9933C14.2134 11.9933 11.9933 14.213 11.9936 16.698Z" fill="#091010"/>
</svg>
